<svg xmlns="http://www.w3.org/2000/svg" viewBox="0 0 328.16 438.19"><defs><style>.cls-1{fill:#010101;fill-rule:evenodd;}</style></defs><g id="Layer_2" data-name="Layer 2"><g id="Layer_1-2" data-name="Layer 1"><g id="svgg"><path id="path0" class="cls-1" d="M163.53.11c-38.37,42.8-88.11,110.54-117,158.83-1.57,2.23-2,2.05,8.42,3.15,21.28,2.29,43.86,4.5,64.72,5.95-.09.69.28,3.85-.58,3.48-4.81-.58-14.84-1.4-21.42-2.08-18.95-1.88-36-3.12-54.4-4.85-1,2.47-10.36,15.38-7.9,15.24,17.88.4,59.76.41,84.1.41v3.2l-87.4.2c-1.92,4-7.32,14.4-7.89,16.73,17.4-1.37,50.61-4.5,77.29-6.72,4.26.2,18.94-3,18.4-.26,1,3.63-23.62,3.11-26.8,4.24-21.46,1.9-48.45,4.69-68.2,6.43-4,.61-1.83-1.44-6.49,7.58-45.61,81.91-1.88,187.89,83.89,221.49,12.93,5.27,14.11,5.64,14.51,4.59.12-.29.23-20.83.26-45.65,0-29.24.19-45.39.45-45.87,1-1.95,10.16-7.52,38.58-23.56,7.12-4.05,14.7-8.38,22.4-12.71,15.32-8.6,14.24-7,16.21-24.2,1.21-11.7,1.33-8.66,2.14-18.19.75-8.66-2-7.7,21.86-7.7h19.9c10.32,26.71,19.19,53,29.45,81,.25,20.58.67,50.91.84,67.16,82-77,70.91-157.31,15.92-243.76C264,129.16,229.93,80.93,203.67,47.44c-7.58-9.75-19.41-24.23-28.61-35.4C168.24,4.24,165.25-.8,163.53.11M197.3,79.64c2.79,8.85,8.82,15.19,17.86,18.77,11.83,4-10.83-.31-18.93,24.8,0,1.36-.64.53-1.11-1.47-2.22-9.35-10.87-18-20.54-20.44-2.31-.59-2.14-.92,1-2.07C184.21,96.14,195.76,84,195.83,78c.46-4.64.84-.25,1.47,1.6m50.06,85.61c29.59,36.38,31.51,28.74-7.43,51.29-5.17,3.4-4.76,1.86-5.11,19.4l-.3,15.1c-7-.12-30.34.32-33.09-.49-.06-5.15.21-28.52-.51-28.69-.79-1.57-10.35-8.78-26.09-19.7-6.37-7.18-24-4.16-36.92-4.72-8.81-4.25-11.47-.55-10.78-16.15-.85-15.11,1.09-12.78,10.9-17,26.94,0,81.2,0,108.14,0l1.19,1M181.83,217c10.06,6.78,10.06,6.79,2.86,12.52-14.4,11.54-27.93,15.3-43.06,11.92-2.3-.94-3.51-.56.7-3.49S154,228.67,164,219.51c11.35-9.29,6.06-10.22,17.8-2.51M68,224.09c5.71,24.63,35.37,26.49,23.6,27.75-6.79,1.18-22.62,16.89-23,24.32-.83,3.8-1.12,3.76-2.39-.32-3.52-11.28-14-21.7-24.49-24.36-2.9-.74-3.51-1.3-1.64-1.53,11.2-1.38,25-15,26.79-26.41.26-1.61.74-1.37,1.1.55m45,57.36c5.75,14.34,21.17,14.73,14.44,16.58-4,1.34-9.64,6.07-12.66,10.7-3.2,7.6-7.07-8.21-15.36-10-3.22-1-3.65-1.49-2-2.35,5.56-2.84,10.66-7.73,13-12.44,1.26-2.54,2.56-3.83,2.56-2.53"/></g></g></g></svg>